<svg width="16" height="16" viewBox="0 0 16 16" fill="none" xmlns="http://www.w3.org/2000/svg">
<g clip-path="url(#clip0_109_427)">
<path fill-rule="evenodd" clip-rule="evenodd" d="M7.99995 5.84004C8.44179 5.84004 8.79995 5.48186 8.79995 5.04004C8.79995 4.59822 8.44179 4.24004 7.99995 4.24004C7.55811 4.24004 7.19995 4.59822 7.19995 5.04004C7.19995 5.48186 7.55811 5.84004 7.99995 5.84004ZM7.99995 6.47998C8.33131 6.47998 8.59995 6.71638 8.59995 7.00798V11.232C8.59995 11.5236 8.33131 11.76 7.99995 11.76C7.66859 11.76 7.39995 11.5236 7.39995 11.232V7.00798C7.39995 6.71638 7.66859 6.47998 7.99995 6.47998Z" fill="#B1AFAE"/>
<path fill-rule="evenodd" clip-rule="evenodd" d="M8 14.8C11.7555 14.8 14.8 11.7555 14.8 8C14.8 4.24446 11.7555 1.2 8 1.2C4.24446 1.2 1.2 4.24446 1.2 8C1.2 11.7555 4.24446 14.8 8 14.8ZM8 16C12.4183 16 16 12.4183 16 8C16 3.58172 12.4183 0 8 0C3.58172 0 0 3.58172 0 8C0 12.4183 3.58172 16 8 16Z" fill="#B1AFAE"/>
</g>
<defs>
<clipPath id="clip0_109_427">
<rect width="16" height="16" fill="white"/>
</clipPath>
</defs>
</svg>
