<svg width="20" height="20" viewBox="0 0 20 20" fill="none" xmlns="http://www.w3.org/2000/svg">
<g clip-path="url(#clip0_49_3568)">
<path fill-rule="evenodd" clip-rule="evenodd" d="M3.86305 18.4688C2.57524 18.4688 1.53125 17.4248 1.53125 16.1369V7.67707H18.4776V16.1369C18.4776 17.4248 17.4336 18.4688 16.1458 18.4688H3.86305ZM19.9776 16.1369C19.9776 18.2532 18.2621 19.9688 16.1458 19.9688H3.86305C1.7468 19.9688 0.03125 18.2532 0.03125 16.1369V5.39953C0.03125 3.2833 1.74679 1.5677 3.86305 1.5677H4.64062V0.781252C4.64062 0.367039 4.97641 0.0312519 5.39062 0.0312519C5.80484 0.0312519 6.14062 0.367039 6.14062 0.781252V1.5677H13.8682V0.781252C13.8682 0.367039 14.204 0.0312519 14.6182 0.0312519C15.0325 0.0312519 15.3682 0.367039 15.3682 0.781252V1.5677H16.1458C18.2621 1.5677 19.9776 3.2833 19.9776 5.39953V16.1369ZM18.4776 6.17707H1.53125V5.39953C1.53125 4.1117 2.57524 3.0677 3.86305 3.0677H4.64062V4.62238C4.64062 5.0366 4.97641 5.37238 5.39062 5.37238C5.80484 5.37238 6.14062 5.0366 6.14062 4.62238V3.0677H13.8682V4.62238C13.8682 5.0366 14.204 5.37238 14.6182 5.37238C15.0325 5.37238 15.3682 5.0366 15.3682 4.62238V3.0677H16.1458C17.4336 3.0677 18.4776 4.1117 18.4776 5.39953V6.17707ZM3.87238 15.3906C3.87238 15.8048 4.20817 16.1406 4.62238 16.1406H6.15883C6.57304 16.1406 6.90883 15.8048 6.90883 15.3906C6.90883 14.9764 6.57304 14.6406 6.15883 14.6406H4.62238C4.20817 14.6406 3.87238 14.9764 3.87238 15.3906ZM8.48176 15.3906C8.48176 15.8048 8.81754 16.1406 9.23176 16.1406H10.7682C11.1824 16.1406 11.5182 15.8048 11.5182 15.3906C11.5182 14.9764 11.1824 14.6406 10.7682 14.6406H9.23176C8.81754 14.6406 8.48176 14.9764 8.48176 15.3906ZM13.1 15.3906C13.1 15.8048 13.4358 16.1406 13.85 16.1406H15.3865C15.8007 16.1406 16.1365 15.8048 16.1365 15.3906C16.1365 14.9764 15.8007 14.6406 15.3865 14.6406H13.85C13.4358 14.6406 13.1 14.9764 13.1 15.3906ZM3.87238 10.7813C3.87238 11.1955 4.20817 11.5313 4.62238 11.5313H6.15883C6.57304 11.5313 6.90883 11.1955 6.90883 10.7813C6.90883 10.367 6.57304 10.0313 6.15883 10.0313H4.62238C4.20817 10.0313 3.87238 10.367 3.87238 10.7813ZM8.48176 10.7813C8.48176 11.1955 8.81754 11.5313 9.23176 11.5313H10.7682C11.1824 11.5313 11.5182 11.1955 11.5182 10.7813C11.5182 10.367 11.1824 10.0313 10.7682 10.0313H9.23176C8.81754 10.0313 8.48176 10.367 8.48176 10.7813ZM13.1 10.7813C13.1 11.1955 13.4358 11.5313 13.85 11.5313H15.3865C15.8007 11.5313 16.1365 11.1955 16.1365 10.7813C16.1365 10.367 15.8007 10.0313 15.3865 10.0313H13.85C13.4358 10.0313 13.1 10.367 13.1 10.7813Z" fill="#4F4F4F"/>
</g>
<defs>
<clipPath id="clip0_49_3568">
<rect width="20" height="20" fill="white"/>
</clipPath>
</defs>
</svg>
